<?xml version="1.0" encoding="UTF-8" standalone="no"?>
<!-- Created with Inkscape (http://www.inkscape.org/) -->

<svg
   xmlns:dc="http://purl.org/dc/elements/1.1/"
   xmlns:cc="http://creativecommons.org/ns#"
   xmlns:rdf="http://www.w3.org/1999/02/22-rdf-syntax-ns#"
   xmlns:svg="http://www.w3.org/2000/svg"
   xmlns="http://www.w3.org/2000/svg"
   xmlns:sodipodi="http://sodipodi.sourceforge.net/DTD/sodipodi-0.dtd"
   xmlns:inkscape="http://www.inkscape.org/namespaces/inkscape"
   width="297mm"
   height="210mm"
   viewBox="0 0 297 210"
   version="1.1"
   id="svg8"
   inkscape:version="0.92.3 (2405546, 2018-03-11)"
   sodipodi:docname="puma1.svg">
  <defs
     id="defs2">
    <clipPath
       clipPathUnits="userSpaceOnUse"
       id="clipPath940">
      <rect
         style="fill:#800000;fill-rule:evenodd;stroke-width:0.26362815"
         id="rect942"
         width="208.64287"
         height="208.64287"
         x="46.869041"
         y="86.467262" />
    </clipPath>
    <clipPath
       clipPathUnits="userSpaceOnUse"
       id="clipPath846">
      <rect
         style="fill:#800000;fill-rule:evenodd;stroke-width:0.26458332"
         id="rect848"
         width="208.47023"
         height="208.47023"
         x="51.304287"
         y="86.078484" />
    </clipPath>
    <clipPath
       clipPathUnits="userSpaceOnUse"
       id="clipPath843">
      <rect
         style="fill:#0000ff;fill-rule:evenodd;stroke-width:0.26458332"
         id="rect845"
         width="207.93568"
         height="207.93568"
         x="51.850288"
         y="86.391609" />
    </clipPath>
    <clipPath
       clipPathUnits="userSpaceOnUse"
       id="clipPath847">
      <rect
         style="fill:#0000ff;fill-rule:evenodd;stroke-width:0.26458332"
         id="rect849"
         width="207.93568"
         height="207.93568"
         x="51.850288"
         y="86.391609" />
    </clipPath>
    <clipPath
       clipPathUnits="userSpaceOnUse"
       id="clipPath851">
      <rect
         style="fill:#0000ff;fill-rule:evenodd;stroke-width:0.26458332"
         id="rect853"
         width="207.93568"
         height="207.93568"
         x="51.850288"
         y="86.391609" />
    </clipPath>
    <clipPath
       clipPathUnits="userSpaceOnUse"
       id="clipPath855">
      <rect
         style="fill:#0000ff;fill-rule:evenodd;stroke-width:0.26458332"
         id="rect857"
         width="207.93568"
         height="207.93568"
         x="51.850288"
         y="86.391609" />
    </clipPath>
    <clipPath
       clipPathUnits="userSpaceOnUse"
       id="clipPath859">
      <rect
         style="fill:#0000ff;fill-rule:evenodd;stroke-width:0.26458332"
         id="rect861"
         width="207.93568"
         height="207.93568"
         x="51.850288"
         y="86.391609" />
    </clipPath>
    <clipPath
       clipPathUnits="userSpaceOnUse"
       id="clipPath863">
      <rect
         style="fill:#0000ff;fill-rule:evenodd;stroke-width:0.26458332"
         id="rect865"
         width="207.93568"
         height="207.93568"
         x="51.850288"
         y="86.391609" />
    </clipPath>
    <clipPath
       clipPathUnits="userSpaceOnUse"
       id="clipPath867">
      <rect
         style="fill:#0000ff;fill-rule:evenodd;stroke-width:0.26458332"
         id="rect869"
         width="207.93568"
         height="207.93568"
         x="51.850288"
         y="86.391609" />
    </clipPath>
    <clipPath
       clipPathUnits="userSpaceOnUse"
       id="clipPath871">
      <rect
         style="fill:#0000ff;fill-rule:evenodd;stroke-width:0.26458332"
         id="rect873"
         width="207.93568"
         height="207.93568"
         x="51.850288"
         y="86.391609" />
    </clipPath>
  </defs>
  <sodipodi:namedview
     id="base"
     pagecolor="#ffffff"
     bordercolor="#666666"
     borderopacity="1.0"
     inkscape:pageopacity="0.0"
     inkscape:pageshadow="2"
     inkscape:zoom="0.49497474"
     inkscape:cx="658.0807"
     inkscape:cy="443.25592"
     inkscape:document-units="mm"
     inkscape:current-layer="layer1"
     showgrid="false"
     inkscape:window-width="1299"
     inkscape:window-height="713"
     inkscape:window-x="67"
     inkscape:window-y="27"
     inkscape:window-maximized="1"
     inkscape:snap-global="false" />
  <metadata
     id="metadata5">
    <rdf:RDF>
      <cc:Work
         rdf:about="">
        <dc:format>image/svg+xml</dc:format>
        <dc:type
           rdf:resource="http://purl.org/dc/dcmitype/StillImage" />
        <dc:title />
      </cc:Work>
    </rdf:RDF>
  </metadata>
  <g
     inkscape:label="Layer 1"
     inkscape:groupmode="layer"
     id="layer1"
     transform="translate(0,-87)">
    <g
       id="g883"
       inkscape:export-xdpi="404"
       inkscape:export-ydpi="404">
      <rect
         clip-path="url(#clipPath871)"
         y="86.02446"
         x="51.275066"
         height="212.80058"
         width="208.83183"
         id="rect922"
         style="fill:#b88943;fill-rule:evenodd;stroke-width:0.26458332;fill-opacity:1" />
      <path
         clip-path="url(#clipPath867)"
         sodipodi:nodetypes="ccccccccccc"
         inkscape:connector-curvature="0"
         id="path903"
         d="m 190.99655,202.28177 c -2.29093,11.42704 4.2908,21.21016 4.91369,31.56101 -7.93222,4.12695 -18.37312,-0.28736 -20.6942,1.32291 -2.50298,1.5292 -2.03673,3.73823 -0.85045,5.19718 0.0538,1.78618 0.60273,2.79862 2.07887,2.36235 0.79156,3.13816 3.02316,3.19987 5.76414,2.17336 4.30779,-2.06684 7.55068,-4.66613 16.25298,-4.53571 3.02287,0.49742 3.83685,-0.90693 3.21279,-4.06325 -0.48529,-6.51344 1.73203,-9.62074 3.40179,-13.41815 l 1.5119,-13.32366 z"
         style="fill:#000000;fill-opacity:1;stroke:#000000;stroke-width:0.26458332px;stroke-linecap:butt;stroke-linejoin:miter;stroke-opacity:1" />
      <path
         clip-path="url(#clipPath863)"
         sodipodi:nodetypes="cccccccc"
         inkscape:connector-curvature="0"
         id="path909"
         d="m 237.94862,227.05067 c 15.09459,2.56152 21.54178,12.15119 13.24063,28.62023 -5.19743,9.54 -14.28824,16.37326 -21.45014,24.47396 -13.30473,11.63872 -7.60552,15.79491 -15.02456,15.49702 -5.35919,-3.19947 -1.01492,-10.66845 9.35491,-20.78869 7.42656,-7.605 16.08019,-14.33353 20.22173,-24.28497 0.91082,-2.86583 3.78299,-6.47584 0,-13.04018 z"
         style="fill:#000000;fill-opacity:1;stroke:#000000;stroke-width:0.26458332px;stroke-linecap:butt;stroke-linejoin:miter;stroke-opacity:1" />
      <path
         clip-path="url(#clipPath859)"
         sodipodi:nodetypes="cccccccccccccccccccccccccccccccccccccccccccccccccccccccccccccccccccccccccccccccccccccccccccccccccccccccccccccccccccccccccccccccccccccccccccccccccccccccccccccccccccccccccccc"
         inkscape:connector-curvature="0"
         id="path911"
         d="m 261.12232,210.13741 c -3.42614,11.31598 -7.47835,22.3711 -15.13024,31.92635 -0.0669,-4.44588 -6.92276,-12.8085 -11.1503,-19.65476 l -17.67038,-25.60789 -29.76563,-16.15848 -4.63021,-5.76414 -14.45758,-10.67783 -29.48215,-25.98586 -0.52385,-1.40947 c 0.14375,-0.068 0.22819,-0.37716 0.30067,-0.73499 -0.15408,-0.33591 -0.46235,-0.51764 -0.73499,-0.73499 -1.15586,-6.61757 2.22488,-14.22752 4.92692,-21.689 0.65496,-0.96876 1.5185,-1.17276 2.55134,-0.75595 0.0945,-0.53546 0.31498,-0.75596 0.66146,-0.66146 l 0.47247,0.0945 c 0.36405,-0.65781 0.9346,-0.90262 1.41741,-1.32291 l 2.55134,-0.47247 c 1.97072,-0.81689 2.83323,0.19477 3.96875,0.75595 -0.43699,-0.53497 -0.55736,-1.03036 -1.32292,-1.6064 -2.13718,-1.05394 -2.33196,0.18767 -3.49628,0.28348 -1.32951,0.74064 -2.58441,0.58588 -3.87425,0.85045 0.15429,-0.58168 1.4887,-0.9011 2.36235,-1.32292 0.63683,-0.46989 1.57554,-0.82658 1.88988,-1.41741 l -0.75595,0.0945 c 0.35003,-0.81895 0.31782,-1.63789 0,-2.45684 0.0705,-0.72445 0.33777,-1.44891 0,-2.17336 l -0.28348,2.30329 c 0.13018,1.03386 -0.32495,1.80758 -0.55516,2.68127 -1.25973,1.17723 -3.67507,1.42999 -5.53598,2.12628 -1.10022,-6.02371 -2.93358,-7.56715 -4.56029,-10.3734 0.89727,1.94891 2.47959,3.9601 2.6894,5.84652 l -4.25961,-4.42665 c 2.95151,3.19459 5.85107,6.38845 4.49347,9.52148 -1.43155,4.42014 -2.52479,8.89233 -4.71062,13.19643 -0.38393,0.98117 -0.67759,1.66495 -1.1359,2.20497 -0.0153,1.91239 -0.71118,3.03084 -1.46998,4.07586 -0.92171,-0.20749 -1.74218,-1.12367 -2.53906,-2.20497 l -1.67044,-2.20497 -8.28535,-10.49033 0.0668,-0.66818 -1.33635,-2.27179 c -0.64582,-0.72028 -1.34797,-1.34667 -1.87089,-2.27179 -1.99462,-0.90921 -3.66008,-2.27924 -5.21175,-3.80859 l -1.87089,-2.87315 c -1.97683,-2.30461 -2.21736,-4.788835 -3.00678,-7.216277 l 0.33408,-2.472243 c 4.48411,-0.309243 4.59979,-2.105483 5.27858,-3.741773 -1.71304,-0.318596 -2.98607,3.949887 -5.54585,3.073599 -0.14758,-0.120365 -0.29373,-0.243221 -0.26726,-0.668173 l 0.0668,-0.133635 c -0.0452,-2.047118 -0.92032,-1.604442 -1.40316,-2.338608 0.73358,1.197723 0.5663,3.401528 1.26953,3.474503 -0.11093,0.759443 -0.18189,1.718691 -0.33409,2.271791 0.2351,1.418626 0.66258,3.077733 0.40091,3.875406 0.61314,1.51498 1.02729,3.27316 2.00452,4.34314 l -0.33409,0.66817 0.53454,0.26727 c -11.25725,1.60379 -15.857999,-1.73725 -23.786987,-2.60588 -0.207407,-0.0387 -0.373573,-0.11832 -0.53454,-0.33409 -0.02722,-0.33953 -0.08679,-0.68553 -0.334087,-1.06908 l -4.00904,-6.748553 c -0.932311,-0.60214 -1.399452,-1.320572 -2.806333,-1.804069 -1.30956,-1.385407 -3.072435,-2.317499 -4.877667,-3.207234 1.699238,1.087432 3.629559,2.036214 4.744034,3.474503 l -0.668173,0.534539 -0.601358,-0.200452 c -0.222725,0.05554 -0.445449,0.221173 -0.668174,0.400905 -3.430972,-0.04454 -4.89994,-0.08909 -7.34991,-0.133635 2.761267,0.200452 4.244463,0.400904 8.285355,0.601356 1.855537,-0.471498 2.062492,-0.04377 2.605876,0.200452 l -0.133633,0.668174 0.668173,0.26727 0.06682,0.601356 0.935443,2.80633 c 1.873536,1.864758 2.613859,3.375388 2.472242,4.610408 -0.713414,-0.75471 -1.454247,-1.40889 -2.53906,-0.80181 l -3.80859,2.80633 -0.133636,0.46772 -0.734991,0.26727 -1.336347,1.40316 -1.737251,1.20272 -2.605879,2.93996 -2.80633,1.60362 c 0.559793,-0.0362 1.702872,-0.79034 1.536801,0.0668 l -0.53454,4.61039 1.202713,-4.20949 0.601356,-1.46998 1.536801,-1.46999 2.071338,-1.9377 1.5368,-1.06908 c 0.363794,-0.73993 0.9287,-1.31227 1.670434,-1.73725 2.197897,-1.73356 3.832256,-2.80643 4.209494,-2.40543 0.599613,1.0532 1.426911,1.27156 2.204974,1.67044 0.17419,-0.86127 1.038103,-0.24456 1.603619,-0.26727 6.848873,2.37414 13.040402,2.88581 20.579743,7.21628 -0.67153,1.33803 1.51323,1.24792 2.40546,1.80407 10.22883,10.11631 12.37452,18.57453 18.24115,27.79603 l 0.73499,0.60135 v 1.26953 c -1.63573,1.52014 -3.7241,0.12264 -6.41447,1.33635 -3.20266,-0.69594 -4.71153,-0.33326 -7.01582,-0.46772 l -5.3454,-0.46772 -10.356688,-4.54358 c -0.441848,-1.9297 -2.378417,-3.21881 -3.608138,-4.81085 l 1.870886,3.80859 c 0.554344,0.33409 0.749207,0.66817 0.801809,1.00226 l -0.868626,0.26727 -7.015825,-3.27406 -3.140417,-1.80406 -1.135896,-2.80633 0.601357,2.87314 -2.739513,0.40091 h 3.006782 l 2.405426,1.5368 1.737252,0.60135 3.274052,1.33635 2.472243,1.40317 -1.469983,0.73499 -4.276312,1.40316 -5.412208,0.20045 c 0.630828,0.0961 2.056196,-0.0414 1.737252,0.33409 -1.704407,0.95307 1.331011,-0.71716 2.80633,-0.4009 l -1.469982,0.86862 c -0.373405,0.30084 -0.03308,0.27226 0.400904,0.20045 -0.459209,0.67844 -1.02228,1.32225 -1.670435,1.93771 v 0.73499 l 0.467722,-0.73499 c 0.553092,-1.16652 1.631636,-1.93896 2.672695,-2.73951 l 1.336348,-0.13364 c 1.033665,-0.166 1.812617,-0.67163 2.672695,-1.06908 1.26953,-0.0445 1.75076,-0.3847 3.808591,-0.13363 -0.150505,-0.53473 0.357553,-0.31682 0.601356,-0.40091 l 7.015823,2.80633 c 0.69619,0.43094 1.7206,0.79623 1.5368,1.40317 0.94251,0.66136 1.10808,0.68472 1.60362,0.66817 6.68174,-0.15472 13.36347,-0.0503 20.04521,2.33861 1.16608,0.62154 2.30459,0.9398 3.40769,0.86863 9.35981,5.33554 13.12007,10.78913 17.57297,17.43933 l -1.26953,0.40091 c -0.47252,-0.031 -0.82978,-0.11965 -0.80181,-0.40091 -1.51098,0.30018 -2.91982,0.9068 -4.54358,0.86863 0.037,0.48522 -0.48656,0.76661 -1.1359,1.00226 -8.95217,2.17044 -17.68748,2.38917 -26.5265,3.54132 -1.39717,-0.28954 -2.69999,-0.57908 -3.4745,-0.86862 l -4.07586,-1.5368 c 1.24726,0.6459 1.74346,1.2918 3.74177,1.9377 1.31119,0.20045 2.00452,0.40091 3.00678,0.60136 l -5.61266,2.27179 c 2.01879,-0.55648 2.06699,0.65552 6.28084,-1.87089 h 7.81763 c 4.12237,-0.14206 6.63719,-1.20271 9.95579,-1.80407 -2.87286,3.06768 -7.77578,5.02806 -11.89349,7.41673 -0.72402,0.31917 -1.40034,0.65953 -2.6727,0.73499 -4.00901,0.82409 -4.45449,2.36088 -6.68174,3.54132 2.37311,-1.04964 4.4375,-2.87109 7.14946,-3.0736 l 0.46773,0.60136 c -1.24439,2.36518 -2.936,4.05954 -4.40995,6.08038 1.1359,-1.09135 -0.72279,1.22024 3.40769,-3.27405 l 2.07133,-3.4745 c 4.81296,-3.0208 10.06858,-5.24484 15.16755,-7.75082 3.45783,-0.67221 7.25944,-1.64694 9.2208,-1.00226 l 11.02487,1.46998 10.95805,10.69078 27.06104,22.45064 7.21627,10.7576 9.08717,17.77343 4.87767,7.34991 c 3.83426,7.63396 6.39552,14.65687 7.08264,20.7802 l -0.13331,18.39676 1.32292,18.70982 36.28571,0.75595 z"
         style="fill:#000000;fill-opacity:1;stroke:#000000;stroke-width:0.26458332px;stroke-linecap:butt;stroke-linejoin:miter;stroke-opacity:1" />
      <path
         clip-path="url(#clipPath855)"
         sodipodi:nodetypes="ccccccccccccc"
         inkscape:connector-curvature="0"
         id="path907"
         d="m 157.42175,165.63704 -12.22758,4.74403 c -2.31211,-0.3387 -2.58631,0.68122 -2.80633,1.73725 -3.88936,-0.92967 -3.95459,3.05153 -2.47225,3.74177 -3.13056,1.55592 -1.15253,3.44189 -0.26727,3.47451 -2.50277,2.11129 -0.44748,3.11769 1.1359,3.20723 1.72974,0.0717 3.28303,-0.74314 1.20271,-2.67269 2.28552,-1.31438 1.22311,-2.23489 0.60136,-3.20724 0.81857,-0.28601 1.49189,-0.69911 1.60362,-1.60361 l 13.0962,3.74177 5.07812,-1.06908 0.33409,-8.41899 z"
         style="fill:#000000;fill-opacity:1;stroke:#000000;stroke-width:0.26458332px;stroke-linecap:butt;stroke-linejoin:miter;stroke-opacity:1" />
      <path
         clip-path="url(#clipPath851)"
         sodipodi:nodetypes="ccc"
         inkscape:connector-curvature="0"
         id="path905"
         d="m 149.73775,174.18966 c 15.4946,-0.73374 5.63686,17.74033 -0.80181,15.23436 -6.49296,2.08424 -14.93862,-16.14595 0.80181,-15.23436 z"
         style="fill:#76060d;fill-opacity:1;stroke:#000000;stroke-width:0.26458332px;stroke-linecap:butt;stroke-linejoin:miter;stroke-opacity:1" />
      <path
         clip-path="url(#clipPath847)"
         sodipodi:nodetypes="cccccccccccccccccccccccccccccccccccccc"
         inkscape:connector-curvature="0"
         id="path901"
         d="m 192.60295,127.44248 c 0.75638,2.44483 -0.21938,3.92737 -0.47248,5.81138 1.82627,2.95789 1.93012,5.75921 2.45685,8.59896 3.22223,3.94305 6.28125,8.28149 7.9375,12.37872 3.71005,8.91557 8.8141,16.80399 17.29241,22.2061 7.01483,-0.42135 11.38658,2.60686 13.98512,8.07924 8.21443,17.4802 3.69324,27.80656 3.59077,34.34859 -0.57089,5.18385 -4.34908,3.7413 -6.04762,1.5119 -4.09875,-5.45833 -8.31152,-9.83346 -12.6622,-12.89843 -0.95243,-0.80974 -2.12849,-0.87402 -3.26004,-1.08668 -2.80465,0.81093 -2.92709,-0.99938 -3.02381,-2.83483 -0.69579,-0.63997 -2.22128,-0.11222 -1.37017,-2.92931 -2.66293,-2.58748 -1.2896,-4.54429 2.07887,-6.18936 L 192.69744,183.5247 c -0.19775,0.10761 -0.31115,0.27848 -0.33073,0.51971 -0.27938,-0.20346 -0.55098,-0.41303 -1.13393,-0.37797 0.0124,0.50564 0.29779,0.87479 0.51972,1.27567 -2.81837,-0.34029 -4.74168,0.51283 -6.94531,0.99218 -3.4317,2.0201 -7.42854,2.60555 -11.43378,3.02381 -4.47026,0.38955 -8.49429,1.45975 -12.85119,2.55134 -1.13827,0.27262 -2.15774,0.84227 -3.11831,1.55916 -2.78211,2.08184 -8.30581,3.51925 -13.60714,-0.70871 -2.85203,-2.79856 -1.03473,-5.26566 -0.51972,-5.71689 0.72327,-0.49977 1.23345,-0.23022 1.98438,0.23623 1.53447,-3.15384 2.56903,-1.6834 3.77976,-1.84263 1.09571,-4.1122 3.54293,-3.1188 4.48847,-1.18117 2.5956,-2.59561 3.56828,0.52863 3.68527,1.41741 0.66466,-0.47235 1.29194,-1.03813 2.12611,-1.08669 -0.67988,-2.46013 2.65754,-1.37558 4.77195,-1.37016 l 15.63877,-6.80357 1.18117,-2.17336 c -5.68186,-1.86624 -9.96177,-5.01072 -12.61495,-9.6384 L 155.9865,153.3811 c 0.7811,-6.99036 4.45406,-8.45991 6.99256,-12.09524 1.42207,-2.39913 2.83831,-4.85085 4.34673,-6.47284 0.528,-1.70587 0.33425,-3.89291 1.6064,-5.10268 l -0.51972,-3.59078 z"
         style="fill:#000000;fill-opacity:1;stroke:none;stroke-width:0.16500001;stroke-linecap:butt;stroke-linejoin:miter;stroke-miterlimit:4;stroke-dasharray:none;stroke-opacity:1" />
      <path
         clip-path="url(#clipPath843)"
         sodipodi:nodetypes="cccccscscccccccc"
         inkscape:connector-curvature="0"
         id="path899"
         d="m 176.44446,105.51986 c -1.75282,-1.63039 -3.34166,-5.00162 -8.40997,-3.68527 -0.88474,0.71796 -0.84213,1.41486 -1.03943,3.30729 1.07493,2.22505 1.13363,4.32307 1.22842,6.4256 -1.12551,3.31416 -2.80041,6.92797 -2.64583,9.5439 -0.27408,2.62308 5.0117,6.76596 7.03602,9.40393 1.72593,2.24913 3.61485,4.20304 5.05921,4.67568 5.40744,-0.36094 7.8556,-2.02149 10.01394,-3.82561 1.69012,-1.41275 3.31671,-1.7332 6.14455,-5.4348 0.28902,-0.69675 0.52778,-1.64481 0.56696,-3.59078 0.28765,-0.98964 1.51191,-1.98437 1.51191,-1.98437 -0.0532,-0.82879 -0.30764,-1.45625 -0.47247,-2.17337 1.51453,-2.92619 5.49079,-4.55118 5.00818,-8.69345 -0.20966,-1.33276 -2.46608,-1.58901 -3.87425,-2.17336 -3.43419,0.52795 -3.79079,1.41796 -5.29167,2.17336 -4.1168,-3.16378 -8.48361,-5.77199 -14.83557,-3.96875 z"
         style="fill:#000000;fill-opacity:1;stroke:none;stroke-width:0.065;stroke-linecap:butt;stroke-linejoin:miter;stroke-miterlimit:4;stroke-dasharray:none;stroke-opacity:1" />
    </g>
  </g>
</svg>
